<?xml version="1.0" encoding="UTF-8"?><svg id="Capa_2" xmlns="http://www.w3.org/2000/svg" viewBox="0 0 1426.53 335.58"><defs><style>.cls-1{letter-spacing:-.05em;}.cls-2{letter-spacing:-.04em;}.cls-3{letter-spacing:-.04em;}.cls-4{letter-spacing:-.03em;}.cls-5{letter-spacing:-.03em;}.cls-6{fill:#d93a26;}.cls-7{fill:#282828;font-family:Manrope-SemiBold, Manrope;font-size:258.98px;font-weight:600;}</style></defs><g id="Capa_1-2"><path class="cls-6" d="M204.73,115.85h30.96c1.05,0,2.05.29,2.93.79,0,.15-.02.3-.02.46v153.48c0,6.68,6.48,11.44,12.85,9.44h0c.11-.03.21-.07.31-.11,14.43-5.72,33.35-13.34,47.02-19.48,2.51-1.02,5.49-2.37,5.63-6.91V117.1c0-.27-.02-.53-.05-.79v-.46h.05V22.4c0-5.51-4.47-9.99-9.99-9.99h-23.18c-4.16,0-7.93,2.57-9.35,6.49-9.5,26.31-27.48,45.98-54.66,50.84-1.24.22-2.49.41-3.77.57-4.98.62-8.72,4.86-8.72,9.88v25.67c0,5.51,4.47,9.99,9.99,9.99Z"/><path class="cls-6" d="M245.6,2.18c-1.32-1.35-3.13-2.18-5.13-2.18H12.95C5.8,0,0,5.25,0,11.73v34.42c0,8.33,1.53,12,11.94,12h75.98c2.02,0,3.65,1.63,3.65,3.65v28.88c0,.13-.02.24-.04.36v161.92c0,3.59,2.44,6.46,5.75,7.88,6.8,2.91,29.89,14.26,37.64,18.35,9.85,5.19,21.61-3.17,21.61-14.31V67.29c0-.48-.06-1.42-.06-1.42-.56-2.59.32-5.6,2.91-6.64.59-.24,1.27-.37,2.03-.37h24.9c.09-.01.16-.02.16-.02,54.18-5.29,59.74-47.14,60.2-51.87.01-.26.02-.52.04-.78v-1.16c0-1.07-.37-2.12-1.1-2.87Z"/><text class="cls-7" transform="translate(329.76 259.18) scale(1.04 1)"><tspan class="cls-3" x="0" y="0">r</tspan><tspan class="cls-4" x="89.74" y="0">e</tspan><tspan class="cls-1" x="236.45" y="0">f</tspan><tspan class="cls-4" x="319.46" y="0">erid</tspan><tspan class="cls-2" x="769.04" y="0">o</tspan><tspan class="cls-5" x="916.54" y="0">s</tspan></text></g></svg>